<?xml version="1.0" encoding="UTF-8" standalone="no"?>
<svg
   width="1269.5396"
   height="1269.5396"
   viewBox="0 0 1269.5396 1269.5396"
   version="1.1"
   id="svg3"
   xmlns="http://www.w3.org/2000/svg"
   xmlns:svg="http://www.w3.org/2000/svg"
   xmlns:rdf="http://www.w3.org/1999/02/22-rdf-syntax-ns#"
   xmlns:cc="http://creativecommons.org/ns#"
   xmlns:dc="http://purl.org/dc/elements/1.1/">
  <title
     id="title1">Chuck Norris ipsum</title>
  <defs
     id="defs1" />
  <g
     id="layer1"
     transform="translate(139.58292,179.46371)">
    <circle
       style="fill:#ffffff;fill-opacity:1"
       id="path4"
       cx="495.18686"
       cy="455.30606"
       r="634.76978" />
  </g>
  <g
     id="Page-1"
     stroke="none"
     stroke-width="1"
     fill="none"
     fill-rule="evenodd"
     style="display:inline"
     transform="translate(164.35529,164.76978)">
    <g
       id="Group"
       transform="matrix(1,0,0,-1,0.4,939.6)"
       fill="#9d3c2e">
      <path
         d="m 435.23156,938.6 c -0.86681,-0.9 -9.34222,-3.7 -12.80943,-4.4 -1.34836,-0.2 -3.94877,-0.7 -5.77869,-1 -1.82991,-0.4 -5.29713,-0.8 -7.70491,-1 -24.65574,-2.1 -52.97132,-15.8 -71.17419,-34.5 -17.33606,-17.8 -29.85655,-41.4 -39.10246,-73.7 -1.34835,-4.9 -2.79303,-9.6 -3.08196,-10.4 -0.28894,-0.8 -0.67418,-1.9 -0.8668,-2.5 -0.7705,-2.6 -6.16394,-26.9 -6.6455,-29.8 -0.28893,-1.7 -0.96311,-5.7 -1.44467,-8.8 -0.57787,-3.1 -1.15574,-7.6 -1.34836,-10 -1.73361,-20.5 -5.58606,-22.9 -29.95287,-18.4 -6.93443,1.3 -14.2541,2.6 -16.37295,2.9 -2.11885,0.3 -4.91189,0.8 -6.26025,1 -1.34836,0.3 -5.00819,0.8 -8.18647,1.1 -3.17828,0.4 -6.83812,0.8 -8.18648,1 -2.40778,0.3 -10.30532,1.1 -20.22541,2 -23.69262,2.1 -62.89139,2.1 -82.82787,0 -1.82991,-0.2 -6.16393,-0.6 -9.63114,-1 C 73.389344,748.3 51.430328,740.9 35.25,728.1 22.633197,718 10.497951,699.7 7.8012295,686.5 c -0.3852459,-1.9 -1.1557377,-4 -1.829918,-4.8 -0.5778689,-0.8 -0.8668033,-1.6 -0.6741804,-1.8 0.192623,-0.2 -0.1926229,-3.1 -0.7704918,-6.6 -0.5778688,-3.4 -1.2520491,-7.2 -1.3483606,-8.4 -0.192623,-1.2 -0.9631148,-3 -1.829918,-4 -1.15573775,-1.5 -1.44467218,-4.4 -1.25204922,-16.3 0.19262295,-13 0.48155737,-15.6 3.27459012,-25 1.6372951,-5.8 3.2745902,-12.1 3.5635246,-14 0.2889345,-1.9 0.7704918,-3.8 0.9631148,-4.1 0.1926229,-0.3 0.5778688,-2.1 0.8668033,-4 6.5491807,-38.7 23.1147537,-75.4 49.6004097,-109.9 7.223361,-9.4 26.678279,-30.5 34.190574,-37 10.979512,-9.6 15.313522,-13.1 29.856552,-24.5 30.81968,-24.3 62.60246,-49 86.68033,-67.2 30.43443,-23.2 31.59017,-24.1 34.09426,-28.1 2.88935,-4.5 4.71927,-12.9 5.39345,-24.2 0.28893,-5.2 0.67418,-10.8 0.96311,-12.5 0.28894,-1.6 0.67418,-4.7 0.96312,-6.7 6.06762,-46 21.47746,-82.9 44.20697,-106.4 4.33401,-4.4 21.09221,-16.4 23.01844,-16.4 1.25205,0 12.42418,-8.1 16.08401,-11.6 15.50615,-14.8 25.90779,-20.3 44.68853,-23.4 6.7418,-1.1 28.21926,-1.4 40.54713,-0.5 21.76639,1.5 23.78893,1.8 35.15369,4.1 3.94877,0.8 8.28278,1.6 9.53483,1.9 4.43033,0.9 21.7664,6.6 25.81148,8.6 2.31147,1 4.43033,1.9 4.71926,1.9 1.15574,0 21.09221,10.4 21.38115,11.2 0.19262,0.4 0.77049,0.8 1.25205,0.8 1.15574,0 11.84631,6.9 19.64754,12.7 27.7377,20.5 45.26639,39.4 58.17213,62.6 4.04508,7.4 6.26025,11.8 10.20902,21.2 4.2377,9.7 11.94262,37.3 13.57991,48.5 0.28894,1.9 0.67418,4.6 0.96312,6 0.57787,3 1.15574,7 1.82992,13 0.28893,2.5 0.67418,6.1 0.96311,8 0.67418,4.6 1.34836,14.7 1.92623,29 0.77049,16.9 1.44467,20.9 4.91189,28.1 2.79303,5.8 7.99385,11 13.96516,13.9 2.60041,1.3 4.91189,3.2 5.20082,4.2 0.38525,1.1 -0.67418,4 -2.79303,7.5 -6.06763,10.3 -5.58607,15.6 1.82992,21.2 2.31147,1.7 4.43032,3.1 4.71926,3.1 0.38524,0 3.3709,1.8 6.64549,4 3.94877,2.5 6.83811,5.3 8.18648,7.9 2.69672,4.9 4.04508,4.7 11.75,-2.5 6.54918,-6 8.66803,-6.5 15.02459,-3.5 3.27459,1.5 4.43032,1.7 6.26024,0.7 2.88935,-1.4 10.20902,-12.8 11.55738,-17.8 2.11885,-8.2 0.77049,-16.3 -3.65984,-21.4 -4.81557,-5.6 -6.54918,-7.8 -10.01639,-13.4 -8.09017,-12.8 -14.44672,-29.3 -18.29918,-47.5 -1.15574,-5.5 -2.98566,-11.8 -4.04508,-14 -3.94877,-8.1 -13.96517,-15.5 -28.12295,-20.5 -7.5123,-2.7 -12.80943,-6.3 -13.19468,-9.2 -0.19262,-1.3 0.38525,-5 1.25205,-8.3 1.05943,-4.2 1.44467,-8.3 1.15574,-13.5 -0.28893,-4.1 -0.48156,-12.4 -0.48156,-18.5 -0.0963,-9.6 0.19263,-11.7 2.31148,-16.5 4.04508,-9.1 9.34221,-13.8 21.18852,-18.4 7.70492,-2.9 11.46107,-7.4 12.13525,-14.5 0.28893,-3.8 -0.0963,-6.1 -1.6373,-9.5 -3.3709,-7.1 -7.31967,-7.5 -17.33606,-2 -5.20082,2.9 -6.45287,3.2 -7.89754,2.2 -0.96312,-0.7 -4.62295,-7.1 -8.18648,-14.3 -13.67623,-27.8 -32.7459,-54.2 -58.65369,-81 -17.625,-18.4 -20.51434,-21.2 -33.70901,-32.5 -4.71927,-4.1 -8.86066,-7.7 -9.14959,-8 -0.38525,-0.5 -5.29713,-4.5 -22.6332,-18.5 -3.56352,-2.9 -47.48156,-37.2 -51.14139,-40 -1.54099,-1.1 -3.75615,-2.9 -5.0082,-4 L 454.01229,0 696.71721,0.1 c 133.48771,0 242.99386,0.2 243.18648,0.5 0.28893,0.3 -0.19262,1.5 -1.05943,2.7 -1.54098,2.2 -3.65983,2.8 -25.71516,7.8 -1.05943,0.2 -4.71926,1.1 -8.18648,2 -3.46721,0.9 -7.03074,1.8 -7.99385,2 -0.96311,0.2 -5.0082,1.4 -9.14959,2.5 -4.04508,1.2 -8.09016,2.3 -8.86065,2.5 -8.18648,1.7 -56.72746,17.2 -91.78484,29.1 -26.77459,9.2 -30.43443,10.8 -38.23566,17.2 -10.1127,8.3 -15.02459,16.2 -18.20287,29.4 -2.60041,10.8 -5.68237,16 -15.60246,26.3 -4.81557,5 -9.82377,11 -11.26844,13.4 -4.81557,8.5 -3.3709,20.4 4.1414,32.6 6.16393,10 14.44672,14.7 25.13729,14.2 l 4.91189,-0.3 -3.17828,7.1 c -5.48976,11.9 -6.45287,22.7 -3.17828,35.5 1.82992,7.5 1.54098,12.4 -1.25205,22.5 -1.92623,7 -2.60041,17.6 -1.44467,24.5 2.5041,15.1 2.40778,25 -0.19263,33 -1.63729,5.1 -1.63729,5.7 -0.19262,8.4 2.11885,4 4.91189,6 24.17418,17.7 37.94672,23 66.64754,45.2 90.53279,69.9 13.67623,14.2 16.37295,17.3 23.78893,28 9.43853,13.6 17.04713,27.5 24.84836,45.5 6.16394,14.2 15.98771,49.5 17.43238,62.5 0.19262,1.9 0.48156,4.4 0.77049,5.6 0.19263,1.2 0.77049,5.7 1.15574,10 0.28894,4.3 0.77049,9.3 0.96311,10.9 0.57787,5.3 0.57787,32.8 -0.0963,40 -1.34836,14.8 -2.11885,21.1 -3.3709,26.5 -1.05942,4.1 -1.82992,8.5 -2.40779,12.2 -0.19262,1.5 -0.8668,3.7 -1.44467,4.8 -0.57787,1.1 -0.77049,2 -0.57787,2 1.05943,0 -7.12705,22.4 -11.36475,31 -17.43238,35.9 -48.15574,64.3 -86.10246,79.5 -7.31967,2.9 -21.76639,7.7 -27.15984,9 -7.99385,1.9 -26.67827,5.5 -31.30123,6.1 -3.17827,0.3 -6.54918,0.8 -7.51229,1 -0.96311,0.1 -5.68238,0.6 -10.59426,1 -4.91189,0.3 -9.72746,0.8 -10.78689,1.1 -1.05942,0.3 -20.61065,0.7 -43.53278,0.8 l -41.60656,0.3 -4.1414,2.5 c -5.20082,3.1 -6.64549,5.2 -22.34426,31.7 -6.93442,11.8 -18.10656,30.3 -24.65574,41 -6.54917,10.7 -12.80942,21 -13.96516,22.8 -23.40369,39.1 -49.79303,56.7 -87.93238,58.7 -4.62295,0.3 -6.45287,0.8 -7.41598,2.2 -1.15574,1.6 -3.08197,1.8 -19.64754,1.9 -10.01639,0 -18.68443,-0.2 -19.06967,-0.6 z M 412.21312,598.8 c 3.65983,-5.3 9.05327,-10.7 20.12909,-20.2 11.36476,-9.9 17.14345,-17.9 20.03279,-27.9 1.54098,-5.4 3.3709,-6.2 10.8832,-4.3 9.05327,2.2 26.19672,2.1 47.28893,-0.3 15.21721,-1.7 14.15779,-1.7 13.48361,0.7 -0.86681,2.8 -0.38525,2.4 -8.66804,8.3 -8.57172,6.1 -10.88319,8.3 -12.71311,11.9 -2.11885,4.3 -2.31147,7 -0.8668,10.8 1.92623,4.7 4.81557,7.1 9.05328,7.5 4.52663,0.3 7.99385,-0.8 19.26229,-6.4 8.76434,-4.4 9.05328,-4.4 10.97951,-2.6 1.7336,1.6 1.82992,2.6 1.34836,9.5 -0.48156,7.1 -0.38525,7.9 1.73361,10.5 2.02254,2.4 2.98565,2.8 7.51229,2.7 8.3791,0 15.40984,-4.7 21.7664,-14.6 7.12704,-10.8 14.44672,-16.1 25.04098,-17.8 6.54918,-1.1 9.53483,-4.1 12.71311,-12.9 1.15574,-3.1 2.5041,-6.5 2.88935,-7.6 2.11885,-5.5 6.64549,-20.4 7.31967,-24.5 0.28893,-1.4 0.96311,-4.5 1.54098,-7 2.02254,-9.2 2.79304,-27.5 1.54099,-37 -1.05943,-7.2 -4.52664,-18 -8.18648,-25 -2.98566,-5.8 -11.07582,-17.6 -13.00205,-19 -0.38524,-0.3 -1.63729,-2.8 -2.79303,-5.5 -2.02254,-4.7 -2.31148,-7 -3.17828,-26.5 -0.57787,-11.9 -5.48975,-28.6 -12.42418,-42.5 -7.41598,-14.9 -22.15164,-33.5 -36.50205,-46.3 -6.06762,-5.3 -16.18033,-12.2 -18.39549,-12.4 -1.15574,-0.1 -2.98566,-0.2 -4.04508,-0.3 -4.71927,-0.4 -9.2459,3.9 -13.96517,13 -16.18033,31.3 -37.85041,53.8 -58.26844,60.5 -2.11885,0.7 -4.2377,1.6 -4.81557,2 -0.48156,0.4 -2.69672,1.3 -4.81558,2 -4.71926,1.5 -15.60246,7.5 -18.29918,10 -2.5041,2.4 -9.34221,5.9 -20.89959,10.8 -13.4836,5.8 -19.26229,10.1 -25.42623,19.3 -9.05328,13.4 -17.72131,19.2 -28.70082,19.2 -6.26024,0 -12.80942,-2.3 -13.67623,-4.7 -0.28893,-0.8 0.7705,-3.5 2.5041,-6.1 10.40164,-15.7 7.12705,-25.9 -13.57992,-41.7 -24.17418,-18.4 -41.51024,-41.5 -51.33401,-68.3 -1.44467,-3.8 -3.65984,-8.3 -5.0082,-9.9 l -2.5041,-3 -1.82991,2.5 c -3.17828,4.1 -9.43853,18.1 -10.97951,24.2 -0.7705,3.2 -1.6373,9.1 -2.02254,13 -1.15574,12 -0.28894,160.1 1.05942,182.2 0.67418,12.2 4.71926,25.4 9.72746,32.2 4.04508,5.5 13.77254,11.3 21.28484,12.8 1.54098,0.3 3.56352,0.7 4.62295,0.9 4.81557,1 15.50614,1.6 16.46926,0.9 1.44467,-1.1 3.08197,-7.2 2.60041,-10.1 -0.57787,-4.1 -2.98566,-6.5 -10.69057,-10.7 -4.04509,-2.2 -8.95697,-5.1 -10.69058,-6.4 -4.71926,-3.5 -7.51229,-10.8 -8.28279,-21.5 l -0.67418,-9 4.62296,4.1 c 10.78688,9.2 20.22541,15 29.95287,18.3 6.7418,2.3 17.43237,3.4 22.53688,2.3 3.75615,-0.7 9.05328,-6.4 10.01639,-10.5 1.44468,-6.7 1.54099,-8.6 1.6373,-24.5 l 0.0963,-16.2 2.69672,1.6 c 3.94877,2.4 7.31967,5.9 10.20902,10.5 2.69672,4.2 2.88934,6.1 2.21516,22.3 -0.38524,7.9 1.05943,12.8 5.875,20.6 2.21517,3.5 4.23771,6.6 4.62295,6.9 0.28894,0.3 2.31148,2.7 4.43033,5.5 2.11885,2.7 4.52664,5.7 5.39344,6.6 6.83812,7.1 12.5205,19.8 13.00205,29.2 0.57787,8.5 1.82992,11.6 5.58607,13.2 4.14139,1.8 7.6086,0.2 11.55738,-5.3 z M 397.8627,341.4 c 2.69673,-0.6 10.0164,-2.8 16.37296,-5 6.26024,-2.2 11.94262,-4.1 12.52049,-4.3 0.48155,-0.1 2.79303,-0.7 5.00819,-1.3 4.81558,-1.5 21.67009,-5.2 26.0041,-5.8 15.1209,-2 27.15984,-13.2 35.15369,-32.7 5.10451,-12.4 3.65984,-19.7 -4.2377,-21.4 -2.31148,-0.5 -17.52869,-0.8 -33.99796,-0.8 -25.2336,0.1 -30.91598,0.4 -36.59835,1.9 -6.74181,1.8 -17.52869,7.2 -21.18853,10.6 -4.04508,3.7 -8.3791,5.3 -13.09836,4.7 -5.48976,-0.7 -8.66803,-2.4 -13.86885,-7.2 -4.81558,-4.5 -13.96517,-9.1 -19.84017,-9.9 -7.89754,-1.2 -13.96516,-1 -27.83401,1 -10.0164,1.4 -18.01025,7 -20.32173,14.1 -0.57786,1.9 -1.05942,5.8 -1.15573,8.6 -0.28894,19.3 7.51229,30 22.72951,31.2 15.21721,1.2 24.65573,3.7 32.7459,8.7 5.29713,3.2 13.67623,6.6 18.4918,7.5 1.6373,0.3 2.98566,0.6 3.17828,0.8 0.77049,0.7 15.60246,0.2 19.93647,-0.7 z"
         id="Shape" />
      <path
         d="m 396.9959,439.8 c -0.19262,-0.1 -2.69672,-0.3 -5.68237,-0.4 -6.16394,-0.2 -6.16394,-1 -0.38525,-5.4 7.6086,-5.8 11.94262,-7.6 18.39549,-7.5 7.12705,0.2 16.95082,2.2 17.14344,3.6 0.28894,2.1 -7.89754,7.4 -13.29098,8.5 -5.10451,1.1 -15.60246,1.9 -16.18033,1.2 z"
         id="path1" />
      <path
         d="m 328.80738,104.7 c -0.0963,-0.5 -9.63115,-11 -21.09222,-23.3 C 296.2541,69.1 283.92623,55.9 280.26639,52 276.60656,48 264.56762,35 253.39549,23.1 242.31967,11.2 233.07377,1.1 232.88115,0.7 c -0.0963,-0.3 28.21926,-0.6 62.89139,-0.6 42.08812,0 63.08402,0.3 63.08402,1 -0.0963,1.5 -1.34836,6.7 -5.29713,20.5 -1.92623,6.9 -4.1414,14.8 -4.81558,17.5 -0.77049,2.8 -4.43032,16.3 -8.18647,30 -7.12705,25.9 -9.63115,35.3 -9.63115,36 0,0.9 -1.73361,0.5 -2.11885,-0.4 z"
         id="path2" />
      <path
         d="m 462.39139,73.6 c -21.09221,-5.3 -25.90778,-8.2 -27.35246,-16.2 -0.38524,-2.6 -0.67418,-4.9 -0.48155,-5 0.19262,-0.2 0.57787,-1.9 0.8668,-3.8 0.96311,-6.4 1.63729,-9 2.11885,-9 1.15574,0 12.90574,9.2 16.95082,13.2 2.31148,2.4 5.77869,6.5 7.80123,9.2 3.46721,4.8 7.80123,12.6 7.12705,13 -0.19262,0.1 -3.27459,-0.5 -7.03074,-1.4 z"
         id="path3" />
    </g>
  </g>
  <metadata
     id="metadata4">
    <rdf:RDF>
      <cc:Work
         rdf:about="">
        <dc:title>Chuck Norris ipsum</dc:title>
      </cc:Work>
    </rdf:RDF>
  </metadata>
</svg>
